0
SECTION
2
HEADER
9
$INSUNITS
70
4
9
$ACADVER
1
AC1014
9
$HANDSEED
5
FFFF
0
ENDSEC
0
SECTION
2
TABLES
0
TABLE
2
VPORT
5
8
100
AcDbSymbolTable
0
ENDTAB
0
TABLE
2
LTYPE
5
5
100
AcDbSymbolTable
0
LTYPE
5
14
100
AcDbSymbolTableRecord
100
AcDbLinetypeTableRecord
2
BYBLOCK
70
0
0
LTYPE
5
15
100
AcDbSymbolTableRecord
100
AcDbLinetypeTableRecord
2
BYLAYER
70
0
0
ENDTAB
0
TABLE
2
LAYER
5
2
100
AcDbSymbolTable
70
2
0
LAYER
5
50
100
AcDbSymbolTableRecord
100
AcDbLayerTableRecord
2
0
70
0
6
CONTINUOUS
0
ENDTAB
0
TABLE
2
STYLE
5
3
100
AcDbSymbolTable
70
1
0
STYLE
5
11
100
AcDbSymbolTableRecord
100
AcDbTextStyleTableRecord
2
STANDARD
70
0
0
ENDTAB
0
TABLE
2
VIEW
5
6
100
AcDbSymbolTable
70
0
0
ENDTAB
0
TABLE
2
UCS
5
7
100
AcDbSymbolTable
70
0
0
ENDTAB
0
TABLE
2
APPID
5
9
100
AcDbSymbolTable
70
2
0
APPID
5
12
100
AcDbSymbolTableRecord
100
AcDbRegAppTableRecord
2
ACAD
70
0
0
ENDTAB
0
TABLE
2
DIMSTYLE
5
A
100
AcDbSymbolTable
70
1
0
ENDTAB
0
TABLE
2
BLOCK_RECORD
5
1
100
AcDbSymbolTable
70
1
0
BLOCK_RECORD
5
1F
100
AcDbSymbolTableRecord
100
AcDbBlockTableRecord
2
*MODEL_SPACE
0
BLOCK_RECORD
5
1B
100
AcDbSymbolTableRecord
100
AcDbBlockTableRecord
2
*PAPER_SPACE
0
ENDTAB
0
ENDSEC
0
SECTION
2
BLOCKS
0
BLOCK
5
20
100
AcDbEntity
100
AcDbBlockBegin
2
*MODEL_SPACE
0
ENDBLK
5
21
100
AcDbEntity
100
AcDbBlockEnd
0
BLOCK
5
1C
100
AcDbEntity
100
AcDbBlockBegin
2
*PAPER_SPACE
0
ENDBLK
5
1D
100
AcDbEntity
100
AcDbBlockEnd
0
ENDSEC
0
SECTION
2
ENTITIES
0
ARC
5
100
100
AcDbEntity
8
0
100
AcDbCircle
10
52.200859145519701
20
-5.6726980722279876
30
0
40
2
210
-0
220
0
230
1
100
AcDbArc
50
285.51265640813972
51
344.16052032648423
0
ARC
5
101
100
AcDbEntity
8
0
100
AcDbCircle
10
-52.200859145519701
20
-5.6726980722279876
30
0
40
1.9999999999999956
210
0
220
0
230
1
100
AcDbArc
50
195.83947907240636
51
254.48734366285228
0
SPLINE
5
102
100
AcDbEntity
8
0
100
AcDbSpline
70
0
71
3
72
23
73
19
74
0
42
0.000000001
43
0.0000000001
44
0.0000000001
40
1.3051830146493015
40
1.3051830146493015
40
1.3051830146493015
40
1.3051830146493015
40
2.0162046716199953
40
2.0162046716199953
40
3.1810000330211698
40
3.1810000330211698
40
4.3457953944223444
40
4.3457953944223444
40
6.6753911479939223
40
6.6753911479939223
40
6.6753911479939223
40
9.0049869015654984
40
9.0049869015654984
40
10.169782262966672
40
10.169782262966672
40
11.334577624367846
40
11.334577624367846
40
12.045599334754707
40
12.045599334754707
40
12.045599334754707
40
12.045599334754707
10
-52.73576160419794
20
-7.5998408691426276
30
0
10
-50.516247965499673
20
-8.2158944979211341
30
0
10
-48.248463768247859
20
-8.7350837009922913
30
0
10
-42.216161639508087
20
-9.9415441087625815
30
0
10
-38.415504613471732
20
-10.525340579377879
30
0
10
-30.78317941920487
20
-11.485149892988202
30
0
10
-26.949417373727176
20
-11.858514782330934
30
0
10
-15.428962937007451
20
-12.734942459612954
30
0
10
-7.7178248730760979
20
-13.000000000000004
30
0
10
3.2845901226925028e-14
20
-13.000000000000004
30
0
10
7.7178248730761556
20
-13.000000000000004
30
0
10
15.428962071590892
20
-12.734942496004253
30
0
10
26.949416280308398
20
-11.858514880236569
30
0
10
30.783178456444631
20
-11.485150000684408
30
0
10
38.415504193945502
20
-10.525340645512243
30
0
10
42.216161639508137
20
-9.9415441087625762
30
0
10
48.248463940025026
20
-8.7350836666368572
30
0
10
50.516248169210826
20
-8.2158944415374329
30
0
10
52.735761608845515
20
-7.5998408678526364
30
0
0
SPLINE
5
103
100
AcDbEntity
8
0
100
AcDbSpline
70
0
71
3
72
41
73
37
74
0
42
0.000000001
43
0.0000000001
44
0.0000000001
40
21.726454340598874
40
21.726454340598874
40
21.726454340598874
40
21.726454340598874
40
21.837582669563183
40
21.837582669563183
40
22.447895249541407
40
22.447895249541407
40
23.031466308023195
40
23.031466308023195
40
24.040979832418962
40
24.040979832418962
40
24.921024381350101
40
24.921024381350101
40
25.826116025294255
40
25.826116025294255
40
27.031188922913078
40
27.031188922913078
40
28.292343303034649
40
28.292343303034649
40
29.88236414263795
40
29.88236414263795
40
29.88236414263795
40
31.312082787800779
40
31.312082787800779
40
32.741801432963612
40
32.741801432963612
40
33.690052903789777
40
33.690052903789777
40
34.638304374615942
40
34.638304374615942
40
35.912141117527312
40
35.912141117527312
40
36.908834749976158
40
36.908834749976158
40
37.883434825923601
40
37.883434825923601
40
38.038101403159779
40
38.038101403159779
40
38.038101403159779
40
38.038101403159779
10
54.124919446189594
20
-6.2185844701040534
30
0
10
54.218190919339804
20
-5.8898348512450003
30
0
10
54.304354301978307
20
-5.5591994954754593
30
0
10
54.816012313354619
20
-3.4034872977688972
30
0
10
55.025374061334801
20
-1.53423610469823
30
0
10
54.970889023908768
20
2.1171212015159275
30
0
10
54.727640670726991
20
3.8987643112345669
30
0
10
53.51180174854715
20
8.6409743241585257
30
0
10
52.136343990376062
20
11.502219034593965
30
0
10
48.772389358798009
20
16.365532840898133
30
0
10
46.889983955713525
20
18.435318031974763
30
0
10
42.661545187602066
20
22.21499300408756
30
0
10
40.303780652394458
20
23.915390903057538
30
0
10
34.50033733739896
20
27.412119521048865
30
0
10
30.953357563912995
20
29.055648282062666
30
0
10
23.447361150010305
20
31.78484404268103
30
0
10
19.475186586215731
20
32.84131171562835
30
0
10
10.360583663149502
20
34.538229329359936
30
0
10
5.1801971384405068
20
35
30
0
10
3.3677787478390346e-15
20
35
30
0
10
-4.6579417388613233
20
35
30
0
10
-9.3162232952719357
20
34.625985953426515
30
0
10
-18.492137735755371
20
33.100253142462826
30
0
10
-23.013450160641881
20
31.94847737408076
30
0
10
-30.247034432227267
20
29.308493773455385
30
0
10
-33.055044188598529
20
28.063563091362763
30
0
10
-38.416333746777866
20
25.147405774462918
30
0
10
-40.970898372142287
20
23.475294701228794
30
0
10
-46.463838801267542
20
19.008222610862703
30
0
10
-49.2391758119158
20
16.013246720915248
30
0
10
-52.914347086099227
20
9.9626012228278036
30
0
10
-54.078460318027091
20
7.0614437332092539
30
0
10
-55.168317298227187
20
1.1165853560356931
30
0
10
-55.112927482803116
20
-1.9147929158260812
30
0
10
-54.370715715041257
20
-5.3000552002153523
30
0
10
-54.254661918912163
20
-5.7612872155442609
30
0
10
-54.124919451916668
20
-6.2185844499181187
30
0
0
LWPOLYLINE
5
104
100
AcDbEntity
8
0
100
AcDbPolyline
90
4
70
1
43
0.0
10
5
20
44.500000402331352
10
-5
20
44.500000402331352
42
0.99999999999999989
10
-5
20
40.500000342726707
10
5
20
40.500000342726707
42
0.99999999999999989
0
ARC
5
105
100
AcDbEntity
8
0
100
AcDbCircle
10
20.199203755411823
20
42.91625512766953
30
0
40
2.0000000000000018
210
0
220
0
230
1
100
AcDbArc
50
221.57232937506376
51
258.06345470274186
0
ARC
5
106
100
AcDbEntity
8
0
100
AcDbCircle
10
-20.19920375541183
20
42.91625512766953
30
0
40
2.0000000000000009
210
-0
220
0
230
1
100
AcDbArc
50
281.93654651376067
51
318.42767062493584
0
ARC
5
107
100
AcDbEntity
8
0
100
AcDbCircle
10
-1.1102230246251565e-15
20
24.999999999999986
30
0
40
25.000000558377554
210
0
220
-0
230
1
100
AcDbArc
50
41.572329375063958
51
138.4276706249361
0
SPLINE
5
108
100
AcDbEntity
8
0
100
AcDbSpline
70
0
71
3
72
22
73
18
74
0
42
0.000000001
43
0.0000000001
44
0.0000000001
40
26.72135177081217
40
26.72135177081217
40
26.72135177081217
40
26.72135177081217
40
27.613524042434541
40
27.613524042434541
40
28.966189546012693
40
28.966189546012693
40
29.66164621486768
40
29.66164621486768
40
30.737372490620402
40
30.737372490620402
40
31.332697083001015
40
31.332697083001015
40
31.979694750324391
40
31.979694750324391
40
32.657009984239927
40
32.657009984239927
40
33.026896619413378
40
33.026896619413378
40
33.026896619413378
40
33.026896619413378
10
19.785547255963127
20
40.959500595168372
30
0
10
22.760649730006328
20
40.330565936081172
30
0
10
25.70648379812528
20
39.552020227938911
30
0
10
33.000090994726243
20
37.18733770662336
30
0
10
37.290585277507866
20
35.393196093059373
30
0
10
43.468248140853035
20
32.020839733025184
30
0
10
45.509311833263965
20
30.760759263455263
30
0
10
50.502717102154037
20
27.229241686222146
30
0
10
53.348210014864335
20
24.779965794529968
30
0
10
57.250737971573571
20
20.440857437675209
30
0
10
58.537511593589059
20
18.789519862024335
30
0
10
60.927217810533179
20
15.125162917815596
30
0
10
62.00399150194081
20
13.092159834563846
30
0
10
63.745929384936403
20
8.7183766671514196
30
0
10
64.386966704163854
20
6.3665571301796717
30
0
10
64.906794576446828
20
2.6523224593664398
30
0
10
65.000000968575463
20
1.3261981563048755
30
0
10
65.000000968575463
20
-6.3302533279226447e-31
30
0
0
LINE
5
109
100
AcDbEntity
8
0
100
AcDbLine
10
65.000000968575463
20
-3.9715346649892163e-16
30
0
11
65.000000968575478
21
-20
31
0
0
SPLINE
5
110
100
AcDbEntity
8
0
100
AcDbSpline
70
0
71
3
72
54
73
50
74
0
42
0.000000001
43
0.0000000001
44
0.0000000001
40
1.745100446078636e-16
40
1.745100446078636e-16
40
1.745100446078636e-16
40
1.745100446078636e-16
40
0.085197277143596178
40
0.085197277143596178
40
0.19314747916419572
40
0.19314747916419572
40
0.30647682360029077
40
0.30647682360029077
40
0.47439929081484505
40
0.47439929081484505
40
0.68292759957488403
40
0.68292759957488403
40
0.92713247894044315
40
0.92713247894044315
40
1.2604825077816362
40
1.2604825077816362
40
1.693837545275187
40
1.693837545275187
40
2.2488751112146508
40
2.2488751112146508
40
2.9745859383370297
40
2.9745859383370297
40
3.6722639809639395
40
3.6722639809639395
40
4.7021184526950135
40
4.7021184526950135
40
6.0130920799083816
40
6.0130920799083816
40
7.6643097828503626
40
7.6643097828503626
40
9.3074218060727194
40
9.3074218060727194
40
10.787728498546361
40
10.787728498546361
40
11.52787934478318
40
11.52787934478318
40
12.268030191020001
40
12.268030191020001
40
12.721306638106537
40
12.721306638106537
40
13.174583085193071
40
13.174583085193071
40
13.465893442654469
40
13.465893442654469
40
13.578965647331351
40
13.578965647331351
40
13.629702122168942
40
13.629702122168942
40
13.680438597006532
40
13.680438597006532
40
13.680438597006532
40
13.680438597006532
10
65.000000968575478
20
-19.999999999999996
30
0
10
65.000000968575478
20
-20.420727297554841
30
0
10
64.955022563048857
20
-20.845559431087153
30
0
10
64.77039670942456
20
-21.75508358233488
30
0
10
64.610309731917553
20
-22.232108591237846
30
0
10
64.211217243485379
20
-23.141682202490102
30
0
10
63.970336422208305
20
-23.568582296101464
30
0
10
63.326273561875766
20
-24.548732254720228
30
0
10
62.899743321645261
20
-25.067300651493042
30
0
10
61.898435800557507
20
-26.135263646216039
30
0
10
61.312807884999003
20
-26.660405075950603
30
0
10
60.009861148282013
20
-27.70883576852183
30
0
10
59.285895983388848
20
-28.216385766141741
30
0
10
57.542281761868217
20
-29.328987278914802
30
0
10
56.511438073652407
20
-29.90109367714691
30
0
10
54.112803321687892
20
-31.109217123411035
30
0
10
52.736693856458118
20
-31.712364178566894
30
0
10
49.573452242419222
20
-32.966472811834699
30
0
10
47.777845979573215
20
-33.583267478398106
30
0
10
43.599841352196258
20
-34.869102970175206
30
0
10
41.209294955809071
20
-35.494195590582656
30
0
10
36.503238679820669
20
-36.571972161692045
30
0
10
34.187757513373867
20
-37.029854306645966
30
0
10
28.438795327728101
20
-38.02482634242331
30
0
10
24.995745239033553
20
-38.496372386782213
30
0
10
17.149931779965474
20
-39.344451921428565
30
0
10
12.744864939639884
20
-39.659363351954433
30
0
10
2.7892221920970628
20
-40.05562323042858
30
0
10
-2.7638657232841712
20
-40.056029412521625
30
0
10
-13.841819267757147
20
-39.616299476529122
30
0
10
-19.369982186579811
20
-39.178905508645705
30
0
10
-29.820340943085188
20
-37.847436973780155
30
0
10
-34.74080897122392
20
-37.009555716557983
30
0
10
-42.063044728338951
20
-35.277101215696497
30
0
10
-44.49451277461602
20
-34.618983365761252
30
0
10
-49.315365158062662
20
-33.072823577617456
30
0
10
-51.705717595867341
20
-32.188738373355918
30
0
10
-55.475102247969978
20
-30.453175060980648
30
0
10
-56.887563230710811
20
-29.722281383792648
30
0
10
-59.634024886376594
20
-28.014038207497549
30
0
10
-60.975742949626408
20
-27.048499066919991
30
0
10
-62.987755295334118
20
-25.00787460394239
30
0
10
-63.737461795290614
20
-24.094050035256128
30
0
10
-64.513264632473167
20
-22.484966948151886
30
0
10
-64.698074305005321
20
-21.996013727914651
30
0
10
-64.880281265294869
20
-21.236051403563497
30
0
10
-64.923997937806476
20
-20.997252947389505
30
0
10
-64.983779355264019
20
-20.509179861502322
30
0
10
-65.000000968575478
20
-20.250550494822743
30
0
10
-65.000000968575478
20
-19.999999999999996
30
0
0
LINE
5
111
100
AcDbEntity
8
0
100
AcDbLine
10
-65.000000968575478
20
-19.999999999999996
30
0
11
-65.000000968575478
21
0
31
0
0
SPLINE
5
112
100
AcDbEntity
8
0
100
AcDbSpline
70
0
71
3
72
20
73
16
74
0
42
0.000000001
43
0.0000000001
44
0.0000000001
40
33.026896619413378
40
33.026896619413378
40
33.026896619413378
40
33.026896619413378
40
33.550500053957876
40
33.550500053957876
40
34.388265549229061
40
34.388265549229061
40
35.316420748206355
40
35.316420748206355
40
36.239628903646377
40
36.239628903646377
40
37.380704349520954
40
37.380704349520954
40
38.627815004251815
40
38.627815004251815
40
39.332441476508123
40
39.332441476508123
40
39.332441476508123
40
39.332441476508123
10
-65.000000968575463
20
-1.5797943709000856e-14
30
0
10
-65.000000968575463
20
1.8773371176338434
30
0
10
-64.812349335342077
20
3.7542597736371688
30
0
10
-63.865276018298793
20
8.5313841989852168
30
0
10
-62.830363379553816
20
11.362729743850327
30
0
10
-59.946424361837423
20
16.90646305639779
30
0
10
-58.028021758597347
20
19.576617997667057
30
0
10
-53.704396795156633
20
24.383931979497223
30
0
10
-51.301512631328933
20
26.528088850299905
30
0
10
-45.591693632396506
20
30.810685589812714
30
0
10
-42.204772557794897
20
32.830554154734543
30
0
10
-34.847093308709027
20
36.435951745718341
30
0
10
-30.849735254370287
20
37.964055824747476
30
0
10
-24.466523490312923
20
39.872635114555322
30
0
10
-22.135144310757209
20
40.462797362742563
30
0
10
-19.785547170997621
20
40.959500613130018
30
0
0
ENDSEC
0
SECTION
2
OBJECTS
0
DICTIONARY
5
C
100
AcDbDictionary
3
ACAD_GROUP
350
D
3
ACAD_MLINESTYLE
350
17
0
DICTIONARY
5
D
100
AcDbDictionary
0
DICTIONARY
5
1A
330
C
100
AcDbDictionary
0
DICTIONARY
5
17
100
AcDbDictionary
0
ENDSEC
0
EOF
